<mxfile host="app.diagrams.net" modified="2023-10-28T16:14:42.752Z" agent="Mozilla/5.0 (Windows NT 10.0; Win64; x64) AppleWebKit/537.36 (KHTML, like Gecko) Chrome/116.0.5845.931 YaBrowser/23.9.3.931 Yowser/2.5 Safari/537.36" etag="BP-6B3CoXm3lE9uEh4H8" version="22.0.8" type="github">
  <diagram id="C5RBs43oDa-KdzZeNtuy" name="Page-1">
    <mxGraphModel dx="1904" dy="807" grid="1" gridSize="10" guides="1" tooltips="1" connect="1" arrows="1" fold="1" page="1" pageScale="1" pageWidth="827" pageHeight="1169" math="0" shadow="0">
      <root>
        <mxCell id="WIyWlLk6GJQsqaUBKTNV-0" />
        <mxCell id="WIyWlLk6GJQsqaUBKTNV-1" parent="WIyWlLk6GJQsqaUBKTNV-0" />
        <mxCell id="AhlfNxxuhijxsPZk5XLh-7" value="" style="edgeStyle=orthogonalEdgeStyle;rounded=0;orthogonalLoop=1;jettySize=auto;html=1;" edge="1" parent="WIyWlLk6GJQsqaUBKTNV-1" source="AhlfNxxuhijxsPZk5XLh-0" target="AhlfNxxuhijxsPZk5XLh-2">
          <mxGeometry relative="1" as="geometry" />
        </mxCell>
        <mxCell id="AhlfNxxuhijxsPZk5XLh-0" value="Start" style="ellipse;whiteSpace=wrap;html=1;" vertex="1" parent="WIyWlLk6GJQsqaUBKTNV-1">
          <mxGeometry x="354" y="50" width="120" height="80" as="geometry" />
        </mxCell>
        <mxCell id="AhlfNxxuhijxsPZk5XLh-1" value="Finish" style="ellipse;whiteSpace=wrap;html=1;" vertex="1" parent="WIyWlLk6GJQsqaUBKTNV-1">
          <mxGeometry x="354" y="770" width="120" height="80" as="geometry" />
        </mxCell>
        <mxCell id="AhlfNxxuhijxsPZk5XLh-8" value="" style="edgeStyle=orthogonalEdgeStyle;rounded=0;orthogonalLoop=1;jettySize=auto;html=1;" edge="1" parent="WIyWlLk6GJQsqaUBKTNV-1" source="AhlfNxxuhijxsPZk5XLh-2" target="AhlfNxxuhijxsPZk5XLh-3">
          <mxGeometry relative="1" as="geometry" />
        </mxCell>
        <mxCell id="AhlfNxxuhijxsPZk5XLh-2" value="array = [4, 1, 8, 5, 13, 2]&lt;br&gt;size = length(array)" style="rounded=0;whiteSpace=wrap;html=1;" vertex="1" parent="WIyWlLk6GJQsqaUBKTNV-1">
          <mxGeometry x="276" y="170" width="276" height="60" as="geometry" />
        </mxCell>
        <mxCell id="AhlfNxxuhijxsPZk5XLh-9" value="" style="edgeStyle=orthogonalEdgeStyle;rounded=0;orthogonalLoop=1;jettySize=auto;html=1;" edge="1" parent="WIyWlLk6GJQsqaUBKTNV-1" source="AhlfNxxuhijxsPZk5XLh-3" target="AhlfNxxuhijxsPZk5XLh-4">
          <mxGeometry relative="1" as="geometry" />
        </mxCell>
        <mxCell id="AhlfNxxuhijxsPZk5XLh-17" style="edgeStyle=orthogonalEdgeStyle;rounded=0;orthogonalLoop=1;jettySize=auto;html=1;entryX=0.5;entryY=0;entryDx=0;entryDy=0;" edge="1" parent="WIyWlLk6GJQsqaUBKTNV-1" source="AhlfNxxuhijxsPZk5XLh-3" target="AhlfNxxuhijxsPZk5XLh-16">
          <mxGeometry relative="1" as="geometry">
            <Array as="points">
              <mxPoint x="790" y="320" />
              <mxPoint x="790" y="640" />
              <mxPoint x="414" y="640" />
            </Array>
          </mxGeometry>
        </mxCell>
        <mxCell id="AhlfNxxuhijxsPZk5XLh-3" value="for (i = 0; i &amp;lt; size; i++)" style="shape=hexagon;perimeter=hexagonPerimeter2;whiteSpace=wrap;html=1;fixedSize=1;" vertex="1" parent="WIyWlLk6GJQsqaUBKTNV-1">
          <mxGeometry x="302" y="280" width="224" height="80" as="geometry" />
        </mxCell>
        <mxCell id="AhlfNxxuhijxsPZk5XLh-10" value="" style="edgeStyle=orthogonalEdgeStyle;rounded=0;orthogonalLoop=1;jettySize=auto;html=1;" edge="1" parent="WIyWlLk6GJQsqaUBKTNV-1" source="AhlfNxxuhijxsPZk5XLh-4" target="AhlfNxxuhijxsPZk5XLh-5">
          <mxGeometry relative="1" as="geometry" />
        </mxCell>
        <mxCell id="AhlfNxxuhijxsPZk5XLh-13" style="edgeStyle=orthogonalEdgeStyle;rounded=0;orthogonalLoop=1;jettySize=auto;html=1;entryX=0;entryY=0.5;entryDx=0;entryDy=0;exitX=0;exitY=0.5;exitDx=0;exitDy=0;" edge="1" parent="WIyWlLk6GJQsqaUBKTNV-1" source="AhlfNxxuhijxsPZk5XLh-4" target="AhlfNxxuhijxsPZk5XLh-3">
          <mxGeometry relative="1" as="geometry" />
        </mxCell>
        <mxCell id="AhlfNxxuhijxsPZk5XLh-4" value="for (j = 0; j &amp;lt; size - 1 - i; j++)" style="shape=hexagon;perimeter=hexagonPerimeter2;whiteSpace=wrap;html=1;fixedSize=1;" vertex="1" parent="WIyWlLk6GJQsqaUBKTNV-1">
          <mxGeometry x="302" y="400" width="224" height="80" as="geometry" />
        </mxCell>
        <mxCell id="AhlfNxxuhijxsPZk5XLh-11" value="" style="edgeStyle=orthogonalEdgeStyle;rounded=0;orthogonalLoop=1;jettySize=auto;html=1;" edge="1" parent="WIyWlLk6GJQsqaUBKTNV-1" source="AhlfNxxuhijxsPZk5XLh-5" target="AhlfNxxuhijxsPZk5XLh-6">
          <mxGeometry relative="1" as="geometry" />
        </mxCell>
        <mxCell id="AhlfNxxuhijxsPZk5XLh-14" value="yes" style="edgeLabel;html=1;align=center;verticalAlign=middle;resizable=0;points=[];" vertex="1" connectable="0" parent="AhlfNxxuhijxsPZk5XLh-11">
          <mxGeometry x="-0.6327" y="-1" relative="1" as="geometry">
            <mxPoint as="offset" />
          </mxGeometry>
        </mxCell>
        <mxCell id="AhlfNxxuhijxsPZk5XLh-15" style="edgeStyle=orthogonalEdgeStyle;rounded=0;orthogonalLoop=1;jettySize=auto;html=1;entryX=1;entryY=0.5;entryDx=0;entryDy=0;exitX=0.5;exitY=1;exitDx=0;exitDy=0;" edge="1" parent="WIyWlLk6GJQsqaUBKTNV-1" source="AhlfNxxuhijxsPZk5XLh-5" target="AhlfNxxuhijxsPZk5XLh-4">
          <mxGeometry relative="1" as="geometry">
            <Array as="points">
              <mxPoint x="414" y="610" />
              <mxPoint x="740" y="610" />
              <mxPoint x="740" y="440" />
            </Array>
          </mxGeometry>
        </mxCell>
        <mxCell id="AhlfNxxuhijxsPZk5XLh-5" value="if (array[j] &amp;gt; array[j+1])" style="rhombus;whiteSpace=wrap;html=1;" vertex="1" parent="WIyWlLk6GJQsqaUBKTNV-1">
          <mxGeometry x="337" y="510" width="154" height="80" as="geometry" />
        </mxCell>
        <mxCell id="AhlfNxxuhijxsPZk5XLh-12" style="edgeStyle=orthogonalEdgeStyle;rounded=0;orthogonalLoop=1;jettySize=auto;html=1;entryX=1;entryY=0.5;entryDx=0;entryDy=0;exitX=0.5;exitY=0;exitDx=0;exitDy=0;" edge="1" parent="WIyWlLk6GJQsqaUBKTNV-1" source="AhlfNxxuhijxsPZk5XLh-6" target="AhlfNxxuhijxsPZk5XLh-4">
          <mxGeometry relative="1" as="geometry" />
        </mxCell>
        <mxCell id="AhlfNxxuhijxsPZk5XLh-6" value="temp = array[j]&lt;br&gt;array[j] = array[j+1]&lt;br&gt;array[j+1] = temp" style="rounded=0;whiteSpace=wrap;html=1;" vertex="1" parent="WIyWlLk6GJQsqaUBKTNV-1">
          <mxGeometry x="540" y="520" width="120" height="60" as="geometry" />
        </mxCell>
        <mxCell id="AhlfNxxuhijxsPZk5XLh-18" value="" style="edgeStyle=orthogonalEdgeStyle;rounded=0;orthogonalLoop=1;jettySize=auto;html=1;" edge="1" parent="WIyWlLk6GJQsqaUBKTNV-1" source="AhlfNxxuhijxsPZk5XLh-16" target="AhlfNxxuhijxsPZk5XLh-1">
          <mxGeometry relative="1" as="geometry" />
        </mxCell>
        <mxCell id="AhlfNxxuhijxsPZk5XLh-16" value="array" style="shape=document;whiteSpace=wrap;html=1;boundedLbl=1;" vertex="1" parent="WIyWlLk6GJQsqaUBKTNV-1">
          <mxGeometry x="354" y="660" width="120" height="80" as="geometry" />
        </mxCell>
      </root>
    </mxGraphModel>
  </diagram>
</mxfile>
